<?xml version="1.0" encoding="UTF-8" standalone="no"?>
<!-- Created with Inkscape (http://www.inkscape.org/) -->

<svg
   width="155.25923mm"
   height="52.66795mm"
   viewBox="0 0 155.25923 52.66795"
   version="1.1"
   id="svg1"
   xml:space="preserve"
   xmlns="http://www.w3.org/2000/svg"
   xmlns:svg="http://www.w3.org/2000/svg"><defs
     id="defs1" /><g
     id="layer1"
     transform="translate(-0.00337932,-0.36944346)"><g
       id="layer1-3"
       transform="matrix(1.0383929,0,0,1.0383929,-0.02907129,0.33699285)"><circle
         style="fill:#ffe6ff;fill-opacity:1;stroke:#1b9822;stroke-width:0.52751;stroke-dasharray:none;stroke-opacity:1"
         id="path9"
         cx="24"
         cy="24"
         r="23.704994" /><ellipse
         style="fill:#f0ebff;fill-opacity:1;stroke:#1b9822;stroke-width:0.5;stroke-dasharray:none;stroke-opacity:1"
         id="path4"
         cx="24"
         cy="24"
         rx="9.0912075"
         ry="9.2095308" /><g
         id="g9"
         transform="translate(0.9375,-0.8125)"><path
           style="fill:#1b9822;fill-opacity:1;stroke:#1b9822;stroke-width:0.0354301;stroke-dasharray:none;stroke-opacity:1"
           d="m 23.140456,14.102591 c 0.05158,-1.926042 0.181177,-4.680183 0.262977,-5.5890838 0.144278,-1.6031358 0.467026,-3.149226 0.768449,-3.6811715 0.162118,-0.2861037 0.183305,-0.2988759 0.470002,-0.2833385 0.518676,0.028109 1.780698,0.6198738 2.381376,1.1166303 0.879874,0.72765 1.208222,1.3053101 1.360448,2.3934247 0.195311,1.3960939 0.0471,2.9825348 -0.369292,3.9525508 -0.286133,0.666592 -1.372849,1.787305 -2.240583,2.310685 -0.617003,0.372148 -1.56553,0.713097 -2.464346,0.885814 l -0.19967,0.03837 z"
           id="path6" /><path
           style="fill:none;fill-opacity:0.648184;stroke:#1b9822;stroke-width:0.5;stroke-dasharray:none;stroke-opacity:1"
           d="m 23.311744,15.314915 c 0,0 1.377858,-0.127586 2.565731,-0.915255 0.406164,-0.269325 1.673957,-1.424387 1.990303,-2.342364 0.465861,-1.351845 0.482735,-2.6211348 0.276089,-4.1807729 C 27.942786,6.3588829 26.74315,5.3447693 25.619627,4.8789882 24.441423,4.390538 24.234892,4.4142792 23.884212,5.9439019 c -0.41838,1.8249206 -0.431679,3.543352 -0.545091,5.9575611 -0.08558,1.821852 -0.04711,3.69292 -0.0614,4.336605 -0.03712,1.671911 -2.581689,23.751786 -2.804866,24.93484 -0.123956,0.657088 -0.443111,1.054503 -0.65191,1.272909 -0.275985,0.288685 -0.469043,0.413594 -0.818024,0.565975 -0.555215,0.242431 -0.457419,0.236798 -0.846536,0.321962 -0.295006,0.06457 -0.573452,0.100839 -0.818563,0.09918 -0.409286,-0.0028 -0.661423,-0.126027 -0.851371,-0.231212 -0.299695,-0.16596 -0.657327,-0.461882 -0.78361,-0.743806 -0.154075,-0.343968 -0.196942,-0.91506 -0.16045,-1.343185 0.0259,-0.303834 0.103583,-0.909275 0.314995,-1.235959 0.281469,-0.434939 0.63186,-0.842229 0.978055,-1.070286 0.444242,-0.292646 0.987644,-0.447414 1.205041,-0.493908 0.475118,-0.101613 1.058905,-0.176698 1.480667,-0.208994 0.730935,-0.05597 1.385158,-0.0112 1.385158,-0.0112"
           id="path5" /></g></g><path
       style="fill:none;stroke:#04a320;stroke-width:0.621942;stroke-linecap:round;stroke-dasharray:none"
       id="path1"
       d="m 42.217759,-69.907288 a 14.689048,14.65518 0 0 1 -7.344524,12.691759 14.689048,14.65518 0 0 1 -14.689048,-1e-6 14.689048,14.65518 0 0 1 -7.344523,-12.691758"
       transform="matrix(0.00226702,0.99999743,-0.99999741,0.00227752,0,0)" /><path
       style="fill:#fff1ff;stroke:#04a320;stroke-width:0.6;stroke-linecap:round;stroke-dasharray:none"
       d="m 74.597976,12.073983 0.244041,30.749385"
       id="path2" /><g
       id="g22"
       transform="translate(-5.8671851,3.0198747)"
       style="stroke-linecap:round"><path
         style="fill:none;stroke:#04a320;stroke-width:0.6;stroke-linecap:round;stroke-dasharray:none;stroke-opacity:1"
         d="m 114.89485,11.695437 c 0.0518,-1.7440377 -1.15001,-3.5483431 -3.48935,-2.0557492 -2.68243,1.7114992 -3.66064,4.5147902 -3.66064,8.9075592 0,4.392769 -0.43141,9.359906 -0.79747,12.532461 -0.36606,3.172555 -1.08593,7.371824 -2.07436,10.737879 -1.17345,3.996121 -2.25307,5.40468 -4.57147,5.526703 -2.318405,0.12202 -4.39277,-1.464257 -4.39277,-1.464257"
         id="path7" /><path
         style="fill:none;stroke:#04a320;stroke-width:0.6;stroke-linecap:round;stroke-dasharray:none;stroke-opacity:1"
         d="m 101.51093,22.347072 12.89918,0.129424"
         id="path8" /></g><g
       id="g24"
       transform="translate(-5.5220566,6.7300065)"
       style="stroke-linecap:round"><path
         style="fill:none;stroke:#04a320;stroke-width:0.6;stroke-linecap:round;stroke-dasharray:none;stroke-opacity:1"
         d="m 128.12243,35.447205 0.30505,-7.504313"
         id="path12" /><path
         style="fill:none;stroke:#04a320;stroke-width:0.6;stroke-linecap:round;stroke-dasharray:none;stroke-opacity:1"
         d="m 128.30546,31.062062 c 0,0 0.4054,-1.801926 0.68637,-2.127747 0.68243,-0.791351 1.2858,-1.125034 2.37942,-0.533843 0.61864,0.334427 1.05251,1.360927 1.05251,1.360927"
         id="path13" /></g><ellipse
       style="fill:none;stroke:#04a320;stroke-width:0.6;stroke-linecap:round;stroke-dasharray:none;stroke-opacity:1"
       id="path14"
       cx="130.47839"
       cy="38.577579"
       rx="1.9088711"
       ry="3.1519637" /><path
       style="fill:none;stroke:#04a320;stroke-width:0.6;stroke-linecap:round;stroke-dasharray:none;stroke-opacity:1"
       id="path15"
       d="m 37.980065,-150.58475 a 3.2030606,3.2030606 0 0 1 -1.60153,2.77393 3.2030606,3.2030606 0 0 1 -3.203061,0 3.2030606,3.2030606 0 0 1 -1.60153,-2.77393"
       transform="rotate(91.360477)" /><g
       id="g27"
       transform="translate(-5.5220566,6.7300065)"
       style="stroke-linecap:round"><path
         style="fill:none;stroke:#04a320;stroke-width:0.6;stroke-linecap:round;stroke-dasharray:none;stroke-opacity:1"
         d="m 158.61623,27.637729 -0.034,5.023447 c 0,0 -0.0434,0.84734 0.34509,1.612404 0.21826,0.429822 0.47559,0.497676 0.7923,0.609401 0.39837,0.140533 1.00864,0.02368 1.00864,0.02368"
         id="path16" /><path
         style="fill:none;stroke:#04a320;stroke-width:0.6;stroke-linecap:round;stroke-dasharray:none;stroke-opacity:1"
         d="m 157.33547,30.177176 h 2.69632"
         id="path17" /></g><g
       id="g21"
       transform="translate(-5.9534672,0.60397494)"
       style="stroke-linecap:round"><path
         style="fill:none;stroke:#04a320;stroke-width:0.6;stroke-linecap:round;stroke-dasharray:none"
         d="m 87.184264,34.959121 c 6.838674,-3.484425 9.497315,-7.158507 8.236441,-8.358463 -2.165691,-2.061058 -6.077528,-1.637098 -7.168754,-0.518593 -1.220215,1.250719 -1.760724,2.079341 -1.372742,5.887531 0.465704,4.571052 2.249193,7.430449 4.057211,8.022905 1.898742,0.622185 4.720683,0.322508 6.2841,-1.494761 0.845939,-0.983294 2.226888,-3.874179 2.226888,-3.874179"
         id="path3" /><path
         style="fill:#04a320;fill-opacity:1;stroke:#04a320;stroke-width:2.26772;stroke-linecap:round;stroke-dasharray:none;stroke-opacity:1"
         d="m 331.13048,129.30421 c -0.26222,-0.7572 -1.06725,-5.70049 -1.39884,-8.58953 -0.50312,-4.38357 -0.51381,-10.763 -0.0218,-13.02842 0.56912,-2.62063 1.7309,-4.7528 3.77186,-6.92236 2.0424,-2.171074 3.44613,-2.9816 6.47169,-3.736784 2.84791,-0.710846 8.05267,-0.708661 10.94171,0.0046 3.54653,0.875578 6.88891,2.605161 8.67713,4.490154 0.68065,0.71749 0.77062,0.9583 0.76224,2.04032 -0.0112,1.45064 -1.22007,4.07445 -2.90927,6.3147 -3.36744,4.46594 -10.27074,10.23819 -18.1097,15.14255 -2.27336,1.4223 -7.77765,4.57302 -7.98905,4.57302 -0.0529,0 -0.14104,-0.1297 -0.19594,-0.28824 z"
         id="path18"
         transform="scale(0.26458333)" /></g><g
       id="g23"
       transform="translate(-5.5220566,6.7300065)"
       style="stroke-linecap:round"><path
         style="fill:none;stroke:#04a320;stroke-width:0.503761;stroke-linecap:round;stroke-opacity:1"
         id="path10"
         d="m -27.426828,120.64352 a 4.4258118,4.4258118 0 0 1 -2.212906,3.83286 4.4258118,4.4258118 0 0 1 -4.425812,0 4.4258118,4.4258118 0 0 1 -2.212906,-3.83286"
         transform="rotate(-90)" /><path
         style="fill:none;stroke:#04a320;stroke-width:0.6;stroke-linecap:round;stroke-dasharray:none;stroke-opacity:1"
         d="m 120.78111,27.52877 c 0,0 -0.4582,7.167168 -0.5944,8.998759 -0.11615,1.602614 -0.10266,7.860435 -1.63509,8.385901 -0.80313,0.275391 -0.78529,0.219934 -1.46011,0.200532 -0.64612,-0.01858 -0.98817,-0.501498 -1.20189,-0.993592 -0.19382,-0.446276 -0.33235,-0.882941 -0.0622,-1.481942 0.17346,-0.384567 0.37643,-0.810581 0.68114,-0.955945 0.47548,-0.226824 0.47835,-0.188333 1.14683,-0.08935 0.29804,0.04413 0.13638,0.01335 0.57871,0.226884 0.80839,0.274548 1.26795,1.320401 1.26795,1.320401"
         id="path11" /><path
         style="fill:#04a320;fill-opacity:1;stroke:#04a320;stroke-width:2.26772;stroke-linecap:round;stroke-dasharray:none;stroke-opacity:1"
         d="m 456.51921,134.17759 c 0.0734,-1.06333 0.52172,-8.05554 0.99638,-15.53824 0.47466,-7.48269 0.8859,-13.63665 0.91386,-13.67547 0.028,-0.0388 0.71086,0.0999 1.51754,0.30815 5.14791,1.32926 9.81374,5.97004 11.12112,11.06141 1.46745,5.71475 -0.16485,11.36004 -4.45483,15.40699 -2.50508,2.36317 -5.49658,3.77941 -8.87469,4.20147 l -1.35275,0.16902 z"
         id="path19"
         transform="scale(0.26458333)" /></g><g
       id="g26"
       transform="translate(-5.5220566,6.7300065)"
       style="stroke-linecap:round"><path
         style="fill:none;stroke:#04a320;stroke-width:0.6;stroke-linecap:round;stroke-dasharray:none"
         d="m 144.89542,32.684581 c 2.99097,-1.52395 4.15375,-3.130849 3.6023,-3.655662 -0.9472,-0.901425 -2.65807,-0.716001 -3.13534,-0.226812 -0.53367,0.547015 -0.77007,0.909421 -0.60038,2.574973 0.20368,1.999198 0.98371,3.249786 1.77446,3.508903 0.83044,0.272119 2.34483,-0.05907 2.84182,-0.627066 0.37356,-0.426939 0.88056,-1.721097 0.88056,-1.721097"
         id="path3-0" /><path
         style="fill:#04a320;fill-opacity:1;stroke:#04a320;stroke-width:0.576479;stroke-linecap:round;stroke-opacity:1"
         d="m 548.38378,122.04058 c -0.28977,-0.47525 -0.69138,-4.1653 -0.70897,-6.51421 -0.0226,-3.02241 0.30299,-4.04989 1.8133,-5.72162 1.93153,-2.13798 6.45972,-2.43779 9.70879,-0.64281 0.75414,0.41663 1.51971,1.01967 1.70127,1.3401 0.30138,0.53189 0.27433,0.69657 -0.31094,1.89282 -1.17252,2.39654 -5.06618,5.82681 -9.72864,8.57081 -2.23817,1.31724 -2.30844,1.34776 -2.47481,1.07491 z"
         id="path20"
         transform="scale(0.26458333)" /></g><g
       id="g25"
       transform="translate(-5.5220566,6.7300065)"
       style="stroke-linecap:round"><path
         style="fill:none;stroke:#04a320;stroke-width:0.6;stroke-linecap:round;stroke-dasharray:none;stroke-opacity:1"
         d="m 141.45214,28.755865 c 0,0 -0.36668,6.819291 -0.50288,8.650882 -0.11615,1.602614 -0.10266,7.860435 -1.63509,8.385901 -0.80313,0.275391 -0.78529,0.219934 -1.46011,0.200532 -0.64612,-0.01858 -0.98817,-0.501498 -1.20189,-0.993592 -0.19382,-0.446276 -0.33235,-0.882941 -0.0622,-1.481942 0.17346,-0.384567 0.37643,-0.810581 0.68114,-0.955945 0.47548,-0.226824 0.47835,-0.188333 1.14683,-0.08935 0.29804,0.04413 0.13638,0.01335 0.57871,0.226884 0.80839,0.274548 1.26795,1.320401 1.26795,1.320401"
         id="path11-8" /><path
         style="fill:none;stroke:#04a320;stroke-width:0.276175;stroke-linecap:round"
         d="m 141.67388,27.749675 c 2.85532,-1.454832 3.75182,-2.805819 3.22538,-3.30683 -0.90423,-0.860542 -2.4155,-0.714034 -2.87111,-0.247031 -0.50947,0.522206 -0.73515,0.868176 -0.57315,2.458188 0.19444,1.908526 0.38999,0.463682 0.74831,0.604279"
         id="path3-8" /><path
         style="fill:#04a320;fill-opacity:1;stroke:#04a320;stroke-width:0.576479;stroke-linecap:round;stroke-opacity:1"
         d="m 535.70426,103.70855 c -0.33925,-1.40567 -0.66252,-5.536824 -0.55548,-7.098526 0.14454,-2.108727 0.65317,-3.218507 2.07638,-4.530369 1.12735,-1.039156 2.46295,-1.457174 4.6558,-1.457174 2.28175,0 5.65487,1.434695 6.01097,2.556655 0.40411,1.273246 -2.58075,4.913741 -6.11549,7.458774 -1.78237,1.28332 -5.50748,3.58897 -5.79902,3.5893 -0.0814,1e-4 -0.20429,-0.2333 -0.27316,-0.51866 z"
         id="path21"
         transform="scale(0.26458333)" /></g><path
       style="fill:#04a320;stroke:#04a320;stroke-width:0.604977;stroke-linecap:round"
       d="m 55.325788,12.369443 v 30"
       id="path22" /></g></svg>
